<svg width="246" height="200" viewBox="0 0 246 200" fill="none" xmlns="http://www.w3.org/2000/svg">
<path d="M130 12C169.012 10.8854 202.847 50.6662 201.854 68.7538C201.725 71.1084 199.484 72.5 197.126 72.5H181.5C178.186 72.5 175.521 69.8145 175.302 66.5081C174.004 46.9763 165.633 18.3443 130 16C92 13.5 73 45 66 67C66.5 61.5 77.5 13.5 130 12Z" fill="#EC68FF"/>
<path d="M193.299 86.0973C193.299 86.0973 192.454 83.3334 185.929 64.0996C173.871 28.1022 146.983 31.1003 116.786 10.8547C105.694 3.41331 93.1025 -3.41724 94.8831 9.05085C97.8224 29.7276 113.011 34.4786 125.838 40.1237C114.306 36.3787 108.554 37.3612 108.52 41.2264C108.532 48.5617 120.037 60.2064 137.944 67.4484C137.944 67.4484 125.759 64.5562 125.018 70.0698C123.76 80.5551 140.328 90.0386 153.607 89.8488C168.15 89.6463 176.302 93.2768 179.501 96.5233C184.32 101.134 193.488 88.0269 193.299 86.0973Z" fill="url(#paint0_linear_1_41)"/>
<mask id="path-3-outside-1_1_41" maskUnits="userSpaceOnUse" x="47.3505" y="27.4599" width="195" height="168" fill="black">
<rect fill="white" x="47.3505" y="27.4599" width="195" height="168"/>
<path fill-rule="evenodd" clip-rule="evenodd" d="M77.2178 38.368C76.5629 41.5822 79.6745 45.1831 84.9997 48.1037C76.5219 47.9134 70.0885 50.183 69.2724 54.1883C68.6187 57.3968 71.7181 60.9905 77.0259 63.9084C60.7013 78.4544 50.7744 98.5045 51.3764 121.262C52.6061 167.753 94.4613 192.672 145.853 191.375C197.244 190.077 238.766 162.812 237.536 116.321C236.894 91.7951 220.885 71.7862 200.689 58.3482C199.855 57.5687 198.986 56.9947 198.151 56.7071C197.187 56.1021 196.216 55.5117 195.237 54.9363C192.889 50.507 186.606 45.4635 178.396 41.9123C169.105 37.8937 160.112 36.982 155.633 39.2079C151.852 36.3796 146.033 33.8997 139.277 32.5232C126.655 29.9515 115.538 32.2046 114.448 37.5555L114.445 37.5717C111.017 35.7935 106.76 34.2961 102.046 33.3357C89.4242 30.764 78.308 33.0171 77.2178 38.368Z"/>
</mask>
<path fill-rule="evenodd" clip-rule="evenodd" d="M77.2178 38.368C76.5629 41.5822 79.6745 45.1831 84.9997 48.1037C76.5219 47.9134 70.0885 50.183 69.2724 54.1883C68.6187 57.3968 71.7181 60.9905 77.0259 63.9084C60.7013 78.4544 50.7744 98.5045 51.3764 121.262C52.6061 167.753 94.4613 192.672 145.853 191.375C197.244 190.077 238.766 162.812 237.536 116.321C236.894 91.7951 220.885 71.7862 200.689 58.3482C199.855 57.5687 198.986 56.9947 198.151 56.7071C197.187 56.1021 196.216 55.5117 195.237 54.9363C192.889 50.507 186.606 45.4635 178.396 41.9123C169.105 37.8937 160.112 36.982 155.633 39.2079C151.852 36.3796 146.033 33.8997 139.277 32.5232C126.655 29.9515 115.538 32.2046 114.448 37.5555L114.445 37.5717C111.017 35.7935 106.76 34.2961 102.046 33.3357C89.4242 30.764 78.308 33.0171 77.2178 38.368Z" fill="white"/>
<path d="M84.9997 48.1037L84.9099 52.1027L86.9232 44.5966L84.9997 48.1037ZM77.2178 38.368L73.2983 37.5695L73.2983 37.5695L77.2178 38.368ZM69.2724 54.1883L65.353 53.3898L65.353 53.3898L69.2724 54.1883ZM77.0259 63.9084L79.687 66.8948L83.9125 63.1296L78.9528 60.4031L77.0259 63.9084ZM51.3764 121.262L47.3778 121.368L51.3764 121.262ZM145.853 191.375L145.752 187.376L145.752 187.376L145.853 191.375ZM237.536 116.321L233.538 116.426L233.538 116.427L237.536 116.321ZM200.689 58.3482L197.959 61.2716L198.2 61.4961L198.474 61.6784L200.689 58.3482ZM198.151 56.7071L196.024 60.0946L196.414 60.3396L196.849 60.4895L198.151 56.7071ZM195.237 54.9363L191.703 56.8094L192.233 57.8103L193.209 58.3844L195.237 54.9363ZM178.396 41.9123L179.984 38.241L179.984 38.241L178.396 41.9123ZM155.633 39.2079L153.238 42.4111L155.209 43.8856L157.414 42.7899L155.633 39.2079ZM139.277 32.5232L138.478 36.4427L138.478 36.4427L139.277 32.5232ZM114.448 37.5555L110.529 36.757L110.527 36.7649L114.448 37.5555ZM114.445 37.5717L112.603 41.1223L117.316 43.5676L118.366 38.3623L114.445 37.5717ZM102.046 33.3357L102.845 29.4162L102.845 29.4162L102.046 33.3357ZM86.9232 44.5966C84.5325 43.2854 82.8928 41.9525 81.9641 40.8155C81.5092 40.2587 81.2916 39.8302 81.1972 39.5515C81.1107 39.296 81.1326 39.1891 81.1372 39.1666L73.2983 37.5695C72.6404 40.7982 73.9904 43.6998 75.7683 45.8764C77.563 48.0736 80.1417 50.0014 83.0762 51.6109L86.9232 44.5966ZM73.1919 54.9869C73.1949 54.9721 73.2239 54.7979 73.5726 54.4809C73.947 54.1405 74.6112 53.7162 75.6739 53.3155C77.8139 52.5088 80.9925 52.0148 84.9099 52.1027L85.0895 44.1047C80.5292 44.0024 76.2522 44.548 72.8519 45.8298C69.6028 47.0547 66.1721 49.3691 65.353 53.3898L73.1919 54.9869ZM78.9528 60.4031C76.5707 59.0936 74.9381 57.7637 74.014 56.63C73.5615 56.0748 73.3451 55.6479 73.2514 55.3704C73.1655 55.116 73.1873 55.0094 73.1919 54.9869L65.353 53.3898C64.6963 56.6127 66.0404 59.5099 67.8132 61.6847C69.6023 63.8795 72.1733 65.8053 75.0989 67.4137L78.9528 60.4031ZM55.375 121.156C54.8076 99.7056 64.1402 80.7478 79.687 66.8948L74.3648 60.922C57.2624 76.1611 46.7413 97.3035 47.3778 121.368L55.375 121.156ZM145.752 187.376C120.674 188.009 98.2629 182.23 82.0913 170.958C66.0367 159.767 55.9545 143.065 55.375 121.156L47.3778 121.368C48.028 145.95 59.4883 164.954 77.5165 177.521C95.4278 190.006 119.64 196.038 145.954 195.373L145.752 187.376ZM233.538 116.427C234.116 138.299 224.703 155.554 208.991 167.623C193.169 179.777 170.824 186.743 145.752 187.376L145.954 195.373C172.273 194.709 196.385 187.394 213.864 173.968C231.453 160.457 242.186 140.834 241.535 116.215L233.538 116.427ZM198.474 61.6784C218.079 74.7233 232.942 93.6977 233.538 116.426L241.535 116.216C240.845 89.8925 223.692 68.8491 202.905 55.0181L198.474 61.6784ZM196.849 60.4895C196.987 60.537 197.384 60.7339 197.959 61.2716L203.42 55.4249C202.326 54.4036 200.986 53.4524 199.452 52.9248L196.849 60.4895ZM193.209 58.3844C194.155 58.9404 195.093 59.5105 196.024 60.0946L200.278 53.3197C199.281 52.6937 198.276 52.0831 197.264 51.4881L193.209 58.3844ZM176.808 45.5835C184.662 48.9808 189.973 53.5468 191.703 56.8094L198.771 53.0631C195.805 47.4673 188.55 41.9461 179.984 38.241L176.808 45.5835ZM157.414 42.7899C158.646 42.1776 161.105 41.7769 164.758 42.1927C168.285 42.5944 172.474 43.7089 176.808 45.5836L179.984 38.241C175.027 36.097 170.074 34.7464 165.663 34.2441C161.376 33.756 157.099 34.0124 153.853 35.626L157.414 42.7899ZM138.478 36.4427C144.825 37.7358 150.05 40.0273 153.238 42.4111L158.029 36.0047C153.653 32.732 147.241 30.0637 140.076 28.6037L138.478 36.4427ZM118.368 38.3541C118.373 38.3291 118.39 38.2558 118.493 38.1205C118.605 37.9731 118.824 37.7485 119.223 37.4838C120.048 36.9369 121.399 36.3806 123.333 35.9887C127.184 35.2081 132.563 35.2375 138.478 36.4427L140.076 28.6037C133.369 27.2373 126.878 27.1073 121.743 28.1481C119.184 28.6668 116.763 29.5164 114.802 30.8165C112.823 32.1291 111.074 34.0785 110.529 36.757L118.368 38.3541ZM118.366 38.3623L118.369 38.3462L110.527 36.7649L110.524 36.781L118.366 38.3623ZM101.248 37.2552C105.643 38.1507 109.543 39.5347 112.603 41.1223L116.287 34.021C112.492 32.0523 107.877 30.4415 102.845 29.4162L101.248 37.2552ZM81.1372 39.1666C81.1423 39.1416 81.1595 39.0683 81.2625 38.933C81.3747 38.7856 81.5935 38.561 81.9928 38.2963C82.8175 37.7494 84.1682 37.1931 86.1021 36.8012C89.9535 36.0206 95.3324 36.05 101.248 37.2552L102.845 29.4162C96.1382 28.0498 89.6479 27.9198 84.513 28.9606C81.9538 29.4793 79.5321 30.3289 77.5715 31.629C75.5921 32.9416 73.844 34.891 73.2983 37.5695L81.1372 39.1666Z" fill="#AD6EF9" mask="url(#path-3-outside-1_1_41)"/>
<path d="M101.605 118.788C101.605 118.788 100.725 116.047 94.1393 96.746C81.8708 60.7874 55.0077 63.9743 24.7233 43.897C13.5997 36.5451 1.02394 29.7909 2.80354 42.2275C5.95215 62.9244 21.0604 67.5493 33.8962 73.1939C22.361 69.5371 16.6064 70.5561 16.5939 74.4152C16.5845 81.8226 28.2125 93.3117 46.1436 100.457C46.1436 100.457 33.9546 97.6419 33.3252 103.108C32.0924 113.606 48.7189 123.003 61.9292 122.697C76.5256 122.385 84.6329 125.992 87.8728 129.269C92.6523 133.838 101.766 120.718 101.605 118.788Z" fill="url(#paint1_linear_1_41)"/>
<path d="M164.76 131.55C164.76 131.55 172.413 150.281 176.019 142.505C177.783 138.346 179.372 133.128 180.377 129.692C180.377 129.692 187.541 145.801 191.921 139.858C196.3 133.914 193.892 123.795 193.892 123.795" stroke="#AD6EF9" stroke-width="5.12366" stroke-linecap="round" stroke-linejoin="round"/>
<path d="M213.119 120.286C218.977 121.77 224.929 118.221 226.413 112.36C227.898 106.5 224.353 100.546 218.496 99.0617C212.638 97.5778 206.686 101.126 205.201 106.987C203.717 112.848 207.261 118.802 213.119 120.286Z" fill="#003451"/>
<path d="M130.5 11C93.026 9.92932 66.1665 45.6645 56.6694 68.0583C55.1161 71.7208 57.9497 75.5 61.928 75.5H84.8856C87.8325 75.5 90.3294 73.3657 90.8508 70.4653C94.2629 51.4858 102.691 19.6467 130.5 19C173.487 18.0003 182.495 32.991 195.988 52.982C191.918 46.9313 182.948 12.4985 130.5 11Z" fill="#E244F2"/>
<path d="M118.726 127.141C121.448 127.797 133.006 132.248 142.711 135.31L120.754 145.941" stroke="#003451" stroke-width="6" stroke-linecap="round" stroke-linejoin="round"/>
<rect x="67.3528" y="69.8997" width="12" height="20" rx="3" transform="rotate(-1.16311 67.3528 69.8997)" fill="#F298FF"/>
<ellipse cx="74.5733" cy="116.342" rx="30.586" ry="34.9725" transform="rotate(-9.01563 74.5733 116.342)" fill="#F298FF"/>
<g filter="url(#filter0_i_1_41)">
<ellipse cx="71.822" cy="121.143" rx="32.5038" ry="36.5" transform="rotate(-9.01563 71.822 121.143)" fill="#EC68FF"/>
</g>
<path d="M58.0993 65.0317C67.1764 42.6362 92.0408 6.92974 129.5 8C179.007 9.41448 192.782 46.0169 196.771 53.1092C196.848 53.2393 196.924 53.3696 197 53.5C196.928 53.382 196.852 53.2515 196.771 53.1092C183.971 31.2873 167.275 13.5148 129.5 16C101.753 17.8255 91.6115 48.6703 87.8984 67.4732C87.3275 70.3643 84.8325 72.5 81.8856 72.5H63.428C59.4497 72.5 56.605 68.7186 58.0993 65.0317Z" fill="#F298FF"/>
<defs>
<filter id="filter0_i_1_41" x="39.2086" y="84.7309" width="65.2267" height="72.8234" filterUnits="userSpaceOnUse" color-interpolation-filters="sRGB">
<feFlood flood-opacity="0" result="BackgroundImageFix"/>
<feBlend mode="normal" in="SourceGraphic" in2="BackgroundImageFix" result="shape"/>
<feColorMatrix in="SourceAlpha" type="matrix" values="0 0 0 0 0 0 0 0 0 0 0 0 0 0 0 0 0 0 127 0" result="hardAlpha"/>
<feOffset dx="-6" dy="-5"/>
<feComposite in2="hardAlpha" operator="arithmetic" k2="-1" k3="1"/>
<feColorMatrix type="matrix" values="0 0 0 0 0.786575 0 0 0 0 0.207934 0 0 0 0 0.845833 0 0 0 1 0"/>
<feBlend mode="normal" in2="shape" result="effect1_innerShadow_1_41"/>
</filter>
<linearGradient id="paint0_linear_1_41" x1="107.435" y1="-4.66126" x2="178.132" y2="101.068" gradientUnits="userSpaceOnUse">
<stop stop-color="#AD6EF9"/>
<stop offset="1" stop-color="#7E60F3"/>
</linearGradient>
<linearGradient id="paint1_linear_1_41" x1="59.8297" y1="48.5363" x2="42.0261" y2="118.817" gradientUnits="userSpaceOnUse">
<stop stop-color="#AD6EF9"/>
<stop offset="1" stop-color="#7E60F3"/>
</linearGradient>
</defs>
</svg>
